<svg id="line_expand1" height="512" viewBox="0 0 64 64" width="512" xmlns="http://www.w3.org/2000/svg" data-name="line expand1"><path d="m32 0a32 32 0 1 0 32 32 32.0367 32.0367 0 0 0 -32-32zm0 62a30 30 0 1 1 30-30 30.034 30.034 0 0 1 -30 30z"/><circle cx="32" cy="5" r="1"/><circle cx="32" cy="59" r="1"/><circle cx="5" cy="32" r="1"/><circle cx="59" cy="32" r="1"/><path d="m50.3848 12.201a1 1 0 1 0 1.4142 0 1 1 0 0 0 -1.4142 0z"/><path d="m12.201 50.3848a1 1 0 1 0 1.4142 0 1 1 0 0 0 -1.4142 0z"/><path d="m12.201 12.201a1 1 0 1 0 1.4142 0 1 1 0 0 0 -1.4142 0z"/><path d="m50.3848 50.3848a1 1 0 1 0 1.4142 0 1 1 0 0 0 -1.4142 0z"/><path d="m21.2849 6.1313a1 1 0 1 0 1.3065.5412 1 1 0 0 0 -1.3065-.5412z"/><path d="m41.95 56.0209a1 1 0 1 0 1.3065.5412 1 1 0 0 0 -1.3065-.5412z"/><path d="m6.6725 41.4086a1 1 0 1 0 1.3066.5412 1 1 0 0 0 -1.3066-.5412z"/><path d="m57.3275 22.5914a1 1 0 1 0 -1.3066-.5412 1 1 0 0 0 1.3066.5412z"/><path d="m41.95 7.9791a1 1 0 1 0 -.5412-1.3066 1 1 0 0 0 .5412 1.3066z"/><path d="m22.05 56.0209a1 1 0 1 0 .5412 1.3065 1 1 0 0 0 -.5412-1.3065z"/><path d="m7.4379 20.7437a1 1 0 1 0 .5412 1.3063 1 1 0 0 0 -.5412-1.3063z"/><path d="m56.5621 43.2563a1 1 0 1 0 -.5412-1.3065 1 1 0 0 0 .5412 1.3065z"/><path d="m26.9277 6.5a1 1 0 1 0 -1.1759-.7857 1 1 0 0 0 1.1759.7857z"/><path d="m37.0723 57.5a1 1 0 1 0 1.1759.7857 1 1 0 0 0 -1.1759-.7857z"/><path d="m6.5 37.0723a1 1 0 1 0 -.7857 1.1759 1 1 0 0 0 .7857-1.1759z"/><path d="m57.5 26.9276a1 1 0 1 0 .7857-1.1758 1 1 0 0 0 -.7857 1.1758z"/><path d="m46.1689 8.9948a1 1 0 1 0 1.3871-.276 1 1 0 0 0 -1.3871.276z"/><path d="m16.1682 53.8941a1 1 0 1 0 1.387-.2759 1 1 0 0 0 -1.387.2759z"/><path d="m8.7189 16.444a1 1 0 1 0 1.387-.2759 1 1 0 0 0 -1.387.2759z"/><path d="m55.2811 47.556a1 1 0 1 0 -1.387.2758 1 1 0 0 0 1.387-.2758z"/><path d="m16.444 8.7188a1 1 0 1 0 1.3871.276 1 1 0 0 0 -1.3871-.276z"/><path d="m46.4448 53.6182a1 1 0 1 0 1.387.2759 1 1 0 0 0 -1.387-.2759z"/><path d="m8.9948 46.1689a1 1 0 1 0 1.387.2759 1 1 0 0 0 -1.387-.2759z"/><path d="m55.0052 17.8311a1 1 0 1 0 -1.387-.2759 1 1 0 0 0 1.387.2759z"/><path d="m37.0723 6.5a1 1 0 1 0 -.7856-1.1759 1 1 0 0 0 .7856 1.1759z"/><path d="m26.9277 57.5a1 1 0 1 0 .7856 1.1759 1 1 0 0 0 -.7856-1.1759z"/><path d="m5.3237 27.7133a1 1 0 1 0 -.7857-1.1758 1 1 0 0 0 .7857 1.1758z"/><path d="m58.6763 36.2866a1 1 0 1 0 .7857 1.1759 1 1 0 0 0 -.7857-1.1759z"/><path d="m35 13h-9a1 1 0 0 0 -1 1v36a1 1 0 0 0 2 0v-17h8a10 10 0 0 0 0-20zm0 18h-8v-16h8a8 8 0 0 1 0 16z"/></svg>